<mxfile host="app.diagrams.net" modified="2021-06-23T10:02:16.632Z" agent="5.0 (Macintosh; Intel Mac OS X 10_15_5) AppleWebKit/537.36 (KHTML, like Gecko) Chrome/91.0.4472.77 Safari/537.36" etag="NeqTfQM2pEn4sC4DfIKD" version="14.8.0" type="github">
  <diagram id="NxrDuSU9kYlpW29OalAH" name="Page-1">
    <mxGraphModel dx="946" dy="562" grid="1" gridSize="10" guides="1" tooltips="1" connect="1" arrows="1" fold="1" page="1" pageScale="1" pageWidth="827" pageHeight="1169" math="0" shadow="0">
      <root>
        <mxCell id="0" />
        <mxCell id="1" parent="0" />
        <mxCell id="HVRTYh3ECQDuSvHbipdO-12" style="edgeStyle=orthogonalEdgeStyle;rounded=0;orthogonalLoop=1;jettySize=auto;html=1;exitX=0;exitY=0.5;exitDx=0;exitDy=0;entryX=1;entryY=0.5;entryDx=0;entryDy=0;" edge="1" parent="1" source="HVRTYh3ECQDuSvHbipdO-1" target="HVRTYh3ECQDuSvHbipdO-10">
          <mxGeometry relative="1" as="geometry" />
        </mxCell>
        <mxCell id="HVRTYh3ECQDuSvHbipdO-1" value="server" style="rounded=0;whiteSpace=wrap;html=1;" vertex="1" parent="1">
          <mxGeometry x="255" y="50" width="122" height="60" as="geometry" />
        </mxCell>
        <mxCell id="HVRTYh3ECQDuSvHbipdO-2" value="slate-editor" style="rounded=0;whiteSpace=wrap;html=1;" vertex="1" parent="1">
          <mxGeometry x="20" y="280" width="70" height="60" as="geometry" />
        </mxCell>
        <mxCell id="HVRTYh3ECQDuSvHbipdO-5" value="slate-editor" style="rounded=0;whiteSpace=wrap;html=1;" vertex="1" parent="1">
          <mxGeometry x="123" y="280" width="70" height="60" as="geometry" />
        </mxCell>
        <mxCell id="HVRTYh3ECQDuSvHbipdO-35" style="edgeStyle=orthogonalEdgeStyle;rounded=0;orthogonalLoop=1;jettySize=auto;html=1;exitX=1;exitY=0.5;exitDx=0;exitDy=0;entryX=0;entryY=0.5;entryDx=0;entryDy=0;" edge="1" parent="1" source="HVRTYh3ECQDuSvHbipdO-6" target="HVRTYh3ECQDuSvHbipdO-24">
          <mxGeometry relative="1" as="geometry" />
        </mxCell>
        <mxCell id="HVRTYh3ECQDuSvHbipdO-6" value="slate-editor" style="rounded=0;whiteSpace=wrap;html=1;" vertex="1" parent="1">
          <mxGeometry x="220" y="280" width="80" height="60" as="geometry" />
        </mxCell>
        <mxCell id="HVRTYh3ECQDuSvHbipdO-15" style="edgeStyle=orthogonalEdgeStyle;rounded=0;orthogonalLoop=1;jettySize=auto;html=1;exitX=0.5;exitY=1;exitDx=0;exitDy=0;entryX=0.5;entryY=0;entryDx=0;entryDy=0;" edge="1" parent="1" source="HVRTYh3ECQDuSvHbipdO-10" target="HVRTYh3ECQDuSvHbipdO-13">
          <mxGeometry relative="1" as="geometry" />
        </mxCell>
        <mxCell id="HVRTYh3ECQDuSvHbipdO-10" value="data" style="text;html=1;strokeColor=none;fillColor=none;align=center;verticalAlign=middle;whiteSpace=wrap;rounded=0;" vertex="1" parent="1">
          <mxGeometry x="145" y="70" width="42" height="20" as="geometry" />
        </mxCell>
        <mxCell id="HVRTYh3ECQDuSvHbipdO-17" style="edgeStyle=orthogonalEdgeStyle;rounded=0;orthogonalLoop=1;jettySize=auto;html=1;exitX=0.25;exitY=1;exitDx=0;exitDy=0;entryX=0.5;entryY=0;entryDx=0;entryDy=0;" edge="1" parent="1" source="HVRTYh3ECQDuSvHbipdO-13" target="HVRTYh3ECQDuSvHbipdO-2">
          <mxGeometry relative="1" as="geometry" />
        </mxCell>
        <mxCell id="HVRTYh3ECQDuSvHbipdO-19" style="edgeStyle=orthogonalEdgeStyle;rounded=0;orthogonalLoop=1;jettySize=auto;html=1;exitX=0.75;exitY=1;exitDx=0;exitDy=0;entryX=0.5;entryY=0;entryDx=0;entryDy=0;" edge="1" parent="1" source="HVRTYh3ECQDuSvHbipdO-13" target="HVRTYh3ECQDuSvHbipdO-6">
          <mxGeometry relative="1" as="geometry" />
        </mxCell>
        <mxCell id="HVRTYh3ECQDuSvHbipdO-21" style="edgeStyle=orthogonalEdgeStyle;rounded=0;orthogonalLoop=1;jettySize=auto;html=1;exitX=0.5;exitY=1;exitDx=0;exitDy=0;entryX=0.614;entryY=0;entryDx=0;entryDy=0;entryPerimeter=0;" edge="1" parent="1" source="HVRTYh3ECQDuSvHbipdO-13" target="HVRTYh3ECQDuSvHbipdO-5">
          <mxGeometry relative="1" as="geometry" />
        </mxCell>
        <mxCell id="HVRTYh3ECQDuSvHbipdO-13" value="covert_data" style="text;html=1;strokeColor=none;fillColor=none;align=center;verticalAlign=middle;whiteSpace=wrap;rounded=0;" vertex="1" parent="1">
          <mxGeometry x="140" y="160" width="52" height="30" as="geometry" />
        </mxCell>
        <mxCell id="HVRTYh3ECQDuSvHbipdO-33" style="edgeStyle=orthogonalEdgeStyle;rounded=0;orthogonalLoop=1;jettySize=auto;html=1;exitX=0.5;exitY=1;exitDx=0;exitDy=0;entryX=0.5;entryY=0;entryDx=0;entryDy=0;" edge="1" parent="1" source="HVRTYh3ECQDuSvHbipdO-24" target="HVRTYh3ECQDuSvHbipdO-27">
          <mxGeometry relative="1" as="geometry" />
        </mxCell>
        <mxCell id="HVRTYh3ECQDuSvHbipdO-24" value="edit" style="text;html=1;strokeColor=none;fillColor=none;align=center;verticalAlign=middle;whiteSpace=wrap;rounded=0;" vertex="1" parent="1">
          <mxGeometry x="337" y="295" width="40" height="30" as="geometry" />
        </mxCell>
        <mxCell id="HVRTYh3ECQDuSvHbipdO-32" style="edgeStyle=orthogonalEdgeStyle;rounded=0;orthogonalLoop=1;jettySize=auto;html=1;exitX=0.5;exitY=1;exitDx=0;exitDy=0;entryX=0.5;entryY=0;entryDx=0;entryDy=0;" edge="1" parent="1" source="HVRTYh3ECQDuSvHbipdO-27" target="HVRTYh3ECQDuSvHbipdO-31">
          <mxGeometry relative="1" as="geometry" />
        </mxCell>
        <mxCell id="HVRTYh3ECQDuSvHbipdO-27" value="onChange" style="text;html=1;strokeColor=none;fillColor=none;align=center;verticalAlign=middle;whiteSpace=wrap;rounded=0;" vertex="1" parent="1">
          <mxGeometry x="337" y="365" width="40" height="20" as="geometry" />
        </mxCell>
        <mxCell id="HVRTYh3ECQDuSvHbipdO-28" value="editor.setNode" style="text;html=1;strokeColor=none;fillColor=none;align=center;verticalAlign=middle;whiteSpace=wrap;rounded=0;" vertex="1" parent="1">
          <mxGeometry x="400" y="295" width="40" height="30" as="geometry" />
        </mxCell>
        <mxCell id="HVRTYh3ECQDuSvHbipdO-31" value="newData" style="text;html=1;strokeColor=none;fillColor=none;align=center;verticalAlign=middle;whiteSpace=wrap;rounded=0;" vertex="1" parent="1">
          <mxGeometry x="337" y="421" width="40" height="20" as="geometry" />
        </mxCell>
        <mxCell id="HVRTYh3ECQDuSvHbipdO-36" value="UI state" style="text;html=1;strokeColor=none;fillColor=none;align=center;verticalAlign=middle;whiteSpace=wrap;rounded=0;" vertex="1" parent="1">
          <mxGeometry x="470" y="180" width="73" height="30" as="geometry" />
        </mxCell>
        <mxCell id="HVRTYh3ECQDuSvHbipdO-37" value="ot-json" style="text;html=1;strokeColor=none;fillColor=none;align=center;verticalAlign=middle;whiteSpace=wrap;rounded=0;" vertex="1" parent="1">
          <mxGeometry x="200" y="401" width="40" height="20" as="geometry" />
        </mxCell>
        <mxCell id="HVRTYh3ECQDuSvHbipdO-38" value="data state" style="text;html=1;strokeColor=none;fillColor=none;align=center;verticalAlign=middle;whiteSpace=wrap;rounded=0;" vertex="1" parent="1">
          <mxGeometry x="280" y="130" width="69.5" height="20" as="geometry" />
        </mxCell>
      </root>
    </mxGraphModel>
  </diagram>
</mxfile>
